<?xml version="1.0" encoding="utf-8"?>
<!-- Generator: Adobe Illustrator 24.3.0, SVG Export Plug-In . SVG Version: 6.00 Build 0)  -->
<svg version="1.1"  xmlns="http://www.w3.org/2000/svg" xmlns:xlink="http://www.w3.org/1999/xlink" x="0px" y="0px"
	 viewBox="0 0 931 758.6" style="enable-background:new 0 0 931 758.6;" xml:space="preserve">
<style type="text/css">
	.st0{opacity:0.3;}
	.st1{fill:none;stroke:#2196F3;stroke-width:4;stroke-miterlimit:10;}
	.st2{fill:none;stroke:#2196F3;stroke-width:4;stroke-miterlimit:10;stroke-dasharray:11.85,11.85;}
	.st3{opacity:0.21;fill:none;stroke:#2196F3;stroke-width:4;stroke-miterlimit:10;stroke-dasharray:12;enable-background:new    ;}
	.st4{opacity:0.5;fill:none;stroke:#2196F3;stroke-width:4;stroke-miterlimit:10;stroke-dasharray:12;enable-background:new    ;}
	.st5{opacity:0.21;}
	.st6{fill:none;stroke:#2196F3;stroke-width:4;stroke-miterlimit:10;stroke-dasharray:11.95,11.95;}
	.st7{opacity:0.5;}
	.st8{fill:none;stroke:#2196F3;stroke-width:4;stroke-miterlimit:10;stroke-dasharray:11.56,11.56;}
	.st9{fill:none;}
	.st10{fill:#F2F2F2;}
	.st11{fill:#7E64ED;}
	.st12{fill:#FFFFFF;}
	.st13{fill:#DBDBDB;}
	.st14{opacity:0.3;fill:#80DEEA;enable-background:new    ;}
	.st15{opacity:0.5;fill:#80DEEA;enable-background:new    ;}
	.st16{opacity:0.2;}
</style>
<g class="st0">
	<path class="st1" d="M659.7,38.3c1.8,1,3.5,1.9,5.2,2.9"/>
	<path class="st2" d="M675.2,47.2c105.7,64.3,176.3,180.6,176.3,313.4c0,30.8-3.8,61.6-11.5,91.4"/>
	<path class="st1" d="M838.5,457.8c-0.5,1.9-1.1,3.8-1.6,5.8"/>
</g>
<path class="st3" d="M118.5,360.6c0-159.3,101.6-294.8,243.5-345.4"/>
<path class="st4" d="M659.7,682.9C606.1,712,546,727.2,485,727.1c-119.5,0-225.7-57.2-292.6-145.8"/>
<g class="st5">
	<path class="st1" d="M722.2,429.7c-0.6,1.9-1.1,3.8-1.8,5.7"/>
	<path class="st6" d="M716.6,446.8c-35,93.9-125.5,160.8-231.6,160.8c-136.4,0-247-110.6-247-247s110.6-247,247-247
		c54.1-0.1,106.8,17.7,149.8,50.6"/>
	<path class="st1" d="M639.5,167.9c1.6,1.3,3.1,2.5,4.6,3.8"/>
</g>
<g class="st7">
	<path class="st1" d="M464,222.2c2-0.3,4-0.5,6-0.8"/>
	<path class="st8" d="M481.5,220.6c1.2,0,2.3,0,3.5,0c77.3,0,140,62.7,140,140c0,23.9-6.1,47.4-17.7,68.2"/>
	<path class="st1" d="M604.3,433.8c-1,1.7-2.1,3.4-3.2,5"/>
</g>
<path class="st9" d="M830.8,545L730,491.8l52.6-86.1c0.9-1.4,2.7-1.9,4.1-1.1l84.1,44.4c1.4,0.8,2,2.5,1.4,4L830.8,545z"/>
<path class="st10" d="M829.2,540.4l-94.3-49.8l49.1-80.4c0.9-1.4,2.7-1.9,4.1-1.1l78.4,41.4c1.4,0.8,2,2.5,1.4,4L829.2,540.4z"/>
<path class="st9" d="M764.3,671l-100.8-53.2l-41.4,92c-0.7,1.5,0,3.2,1.4,4l84.2,44.4c1.5,0.8,3.3,0.3,4.1-1.1L764.3,671z"/>
<path class="st10" d="M759.5,672.2l-94.3-49.8l-38.7,86c-0.7,1.5,0,3.2,1.4,4l78.4,41.4c1.5,0.8,3.3,0.3,4.1-1.1L759.5,672.2z"/>
<path class="st9" d="M639.8,613.2l73.1-138.5c0.6-1.1,2-1.6,3.1-1l138.5,73.1c1.1,0.6,1.6,2,1,3.1l-73.1,138.5c-0.6,1.1-2,1.6-3.1,1
	l-138.5-73.1C639.7,615.8,639.2,614.4,639.8,613.2z"/>
<path class="st10" d="M717.2,477.1l134.2,70.8c1.1,0.6,1.6,2,1,3.1l-70.8,134.2c-0.6,1.1-2,1.6-3.1,1l-134.2-70.8
	c-1.1-0.6-1.6-2-1-3.1L714,478.1C714.6,476.9,716,476.5,717.2,477.1z"/>
<path class="st10" d="M836.3,574.2l5.9,3.1c0.7,0.4,1,1.3,0.6,2l-9.9,18.8c-0.4,0.7-1.3,1-2,0.6l-5.9-3.1c-0.7-0.4-1-1.3-0.6-2
	l9.9-18.8C834.7,574.1,835.6,573.9,836.3,574.2z"/>
<path class="st11" d="M720.2,486.9l121.3,64c1.1,0.6,1.6,2,1,3.1l-64,121.3c-0.6,1.1-2,1.6-3.1,1l-121.3-64c-1.1-0.6-1.6-2-1-3.1
	l64-121.3C717.7,486.7,719.1,486.3,720.2,486.9z"/>
<polygon class="st9" points="790.8,581.8 784.6,568 742.1,586.8 734,569 719.6,575.3 731.5,601.1 731.5,601.1 734.4,607.7 "/>
<polygon class="st12" points="790.2,581.2 784.5,568.8 741.7,588.5 733.3,570.3 720.9,576 732.1,600.4 732.1,600.4 735.1,606.5 "/>
<path class="st11" d="M254.2,48.6c3.1,12.2-3.1,24.8-14.6,29.7l-99.8,42.3c-11.6,4.9-25,0.6-31.5-10.1l-52.8,22.4
	c-6.1,2.6-8.9,9.5-6.3,15.6c0,0,0,0,0,0l200.5,473.3c2.6,6.1,9.5,8.9,15.6,6.3c0,0,0,0,0,0l252.4-106.9c6.1-2.6,8.9-9.5,6.3-15.6
	c0,0,0,0,0,0L323.5,32.2c-2.6-6.1-9.5-8.9-15.6-6.3c0,0,0,0,0,0L254.2,48.6z"/>
<path class="st13" d="M154.4,98.3L215,72.6c1-0.4,2.2,0,2.6,1.1l0.1,0.3c0.4,1,0,2.2-1.1,2.6l-60.7,25.7c-1,0.4-2.2,0-2.6-1.1
	l-0.1-0.3C152.9,99.9,153.3,98.7,154.4,98.3z"/>
<circle class="st13" cx="231.2" cy="67.7" r="2.6"/>
<polygon class="st9" points="329.3,266.1 302.6,260.7 285.8,342.5 251.3,335.7 245.7,363.3 295.7,372.7 295.7,372.7 308.3,375.4 "/>
<polygon class="st12" points="327.7,266.5 303.7,261.9 287.9,344.8 252.6,338.1 248,362.1 295.3,371 295.3,371 307.3,373.2 "/>
<circle class="st14" cx="917" cy="24.6" r="14"/>
<circle class="st14" cx="772.5" cy="343.2" r="14"/>
<circle class="st15" cx="14" cy="81.6" r="14"/>
<circle class="st14" cx="28" cy="38.6" r="14"/>
<g class="st16">
	<path class="st12" d="M157.8,127.6l99.8-42.2c11.5-4.9,17.8-17.5,14.6-29.7l51-21.6l-0.8-1.8c-2.6-6.1-9.5-8.9-15.6-6.3
		c0,0,0,0,0,0l-53.6,22.7c3.1,12.2-3.1,24.8-14.6,29.7l-99.8,42.3c-2.7,1.1-5.5,1.8-8.4,1.9C137.7,129.5,148.5,131.5,157.8,127.6z"
		/>
	<path class="st12" d="M67.1,155.4c-2.6-6.1,0.3-13,6.3-15.6c0,0,0,0,0,0l45.6-19.3c-4.9-2.1-9-5.6-11.7-10.1l-52.9,22.4
		c-6.1,2.6-8.9,9.5-6.3,15.6c0,0,0,0,0,0l200.5,473.3c2.6,6.1,9.5,8.9,15.6,6.3c0,0,0,0,0,0l2.6-1.1L67.1,155.4z"/>
</g>
</svg>
