<?xml version="1.0" encoding="utf-8"?>
<!-- Generator: Adobe Illustrator 24.3.0, SVG Export Plug-In . SVG Version: 6.00 Build 0)  -->
<svg version="1.1" 
	 xmlns="http://www.w3.org/2000/svg" xmlns:xlink="http://www.w3.org/1999/xlink" x="0px" y="0px" viewBox="0 0 804 697.7"
	 style="enable-background:new 0 0 804 697.7;" xml:space="preserve">
<style type="text/css">
	.st0{fill:#E6E6E6;}
	.st1{fill:#FFFFFF;}
	.st2{fill:#3F3D56;}
	.st3{fill:#CCCCCC;}
	.st4{fill:#7E64ED;}
	.st5{fill:#A0616A;}
	.st6{fill:#2F2E41;}
	.st7{fill:#F2F2F2;}
</style>
<path  class="st0" d="M669.8,165.3H666V60.6C666,27.1,638.9,0,605.4,0H383.6
	C350.1,0,323,27.1,323,60.6v0v574.3c0,33.5,27.1,60.6,60.6,60.6h221.8c33.5,0,60.6-27.1,60.6-60.6V239.8h3.8L669.8,165.3z"/>
<path  class="st1" d="M607.8,15.8h-29c4.5,11-0.8,23.5-11.8,28c-2.6,1.1-5.3,1.6-8.1,1.6
	H431.9c-11.9,0-21.5-9.6-21.5-21.5c0-2.8,0.5-5.5,1.6-8.1h-27c-25,0-45.3,20.3-45.3,45.3v573.5c0,25,20.3,45.3,45.3,45.3h222.9
	c25,0,45.3-20.3,45.3-45.3l0,0l0,0V61C653.1,36,632.8,15.8,607.8,15.8z"/>
<path class="st2" d="M429,149.5c-2.4,0-4.8-1-6.4-2.8c-2-2.3-2.9-5.2-2.5-8.2c0.2-2.8,1.4-5.4,3.3-7.5c1.9-2,4.5-3.2,7.2-3.2
	c2.6,0,5,1.1,6.7,3c1.9,2.2,2.9,5.1,2.6,8l0,0c-0.2,3-1.5,5.8-3.6,7.8C434.3,148.5,431.7,149.5,429,149.5z M430.6,131.5
	c-3.5,0-6.6,3.2-7,7.4c-0.2,2,0.3,3.9,1.6,5.4c1,1.1,2.3,1.6,3.8,1.6c3.3,0,6.9-2.3,7.3-7.4c0.2-1.9-0.4-3.8-1.7-5.3
	C433.6,132.1,432.1,131.4,430.6,131.5z M438.1,138.7L438.1,138.7z"/>
<path class="st2" d="M429.1,160.4c-10.9,0.2-19.9-8.5-20-19.4c0-0.8,0-1.6,0.1-2.4c1.2-12.1,11.3-21.3,23.4-21.5
	c6.5,0,11.9,2.1,15.5,6c3.4,3.8,5,9,4.5,14.9c-0.5,5.5-2.8,8.4-4.7,9.9c-1.7,1.4-3.8,2-6,1.7c-3-0.5-6.3-3.2-5.8-9.1l1-10.9
	c0.1-1,1-1.7,2-1.6c1,0.1,1.7,1,1.6,1.9l-1,10.9c-0.3,2.9,0.8,4.9,2.8,5.2c1.2,0.1,2.3-0.3,3.2-1c1.3-1,2.9-3.1,3.3-7.3
	c0.4-4.9-0.8-9.1-3.6-12.1c-2.9-3.2-7.4-4.9-12.8-4.9c-10.3,0.2-18.8,8-19.8,18.2c-1,8.8,5.4,16.8,14.2,17.8
	c0.7,0.1,1.4,0.1,2.1,0.1c2.8,0.2,5.7-0.4,8.3-1.5c0.9-0.4,2,0.1,2.4,1c0.4,0.9,0,2-1,2.4C435.7,159.9,432.4,160.5,429.1,160.4z"/>
<path class="st2" d="M410,418.8c-1,0-1.8-0.8-1.8-1.8c0-0.5,0.2-0.9,0.5-1.3l11.8-11.8c0.7-0.7,1.9-0.7,2.6,0c0.7,0.7,0.7,1.8,0,2.5
	l-11.8,11.8C411,418.6,410.5,418.8,410,418.8z M439.9,414.3c-1,0-1.8-0.8-1.8-1.8c0-0.5,0.2-0.9,0.5-1.3l9.9-9.9
	c0.7-0.7,1.9-0.7,2.6,0c0.7,0.7,0.7,1.8,0,2.5l-9.9,9.9C440.8,414.1,440.3,414.3,439.9,414.3L439.9,414.3z M434.4,414.3
	c-0.5,0-0.9-0.2-1.3-0.5l-7.2-7.2c-0.7-0.7-0.7-1.8,0-2.6c0.7-0.7,1.8-0.7,2.6,0c0,0,0,0,0,0l7.2,7.2c0.7,0.7,0.7,1.9,0,2.6
	C435.4,414.1,434.9,414.3,434.4,414.3z"/>
<path class="st2" d="M452.5,404.3c-2.5,0-4.5-2-4.5-4.5s2-4.5,4.5-4.5c2.5,0,4.5,2,4.5,4.5C457,402.3,455,404.3,452.5,404.3z
	 M452.5,398.9c-0.5,0-0.9,0.4-0.9,0.9s0.4,0.9,0.9,0.9c0.5,0,0.9-0.4,0.9-0.9c0,0,0,0,0,0C453.4,399.3,453,398.9,452.5,398.9z"/>
<path class="st2" d="M437.1,419.7c-2.5,0-4.5-2-4.5-4.5s2-4.5,4.5-4.5c2.5,0,4.5,2,4.5,4.5C441.7,417.7,439.6,419.7,437.1,419.7z
	 M437.1,414.3c-0.5,0-0.9,0.4-0.9,0.9s0.4,0.9,0.9,0.9s0.9-0.4,0.9-0.9l0,0C438,414.7,437.6,414.3,437.1,414.3L437.1,414.3z"/>
<path class="st2" d="M424.5,407.1c-2.5,0-4.5-2-4.5-4.5s2-4.5,4.5-4.5c2.5,0,4.5,2,4.5,4.5C429,405,427,407.1,424.5,407.1z
	 M424.5,401.6c-0.5,0-0.9,0.4-0.9,0.9s0.4,0.9,0.9,0.9c0.5,0,0.9-0.4,0.9-0.9c0,0,0,0,0,0C425.4,402,425,401.6,424.5,401.6z"/>
<path class="st2" d="M407.3,424.2c-2.5,0-4.5-2-4.5-4.5s2-4.5,4.5-4.5s4.5,2,4.5,4.5C411.8,422.2,409.8,424.2,407.3,424.2z
	 M407.3,418.8c-0.5,0-0.9,0.4-0.9,0.9s0.4,0.9,0.9,0.9s0.9-0.4,0.9-0.9l0,0C408.2,419.2,407.8,418.8,407.3,418.8z"/>
<path class="st2" d="M578.9,563.7h-38c-3.5,0-6.3-2.8-6.3-6.3v-27.1c0-3.5,2.8-6.3,6.3-6.3h38c3.5,0,6.3,2.8,6.3,6.3v27.1
	C585.2,560.8,582.4,563.6,578.9,563.7z M540.9,527.5c-1.5,0-2.7,1.2-2.7,2.7v27.1c0,1.5,1.2,2.7,2.7,2.7h38c1.5,0,2.7-1.2,2.7-2.7
	v-27.1c0-1.5-1.2-2.7-2.7-2.7H540.9z"/>
<path class="st2" d="M559.9,547.4c-0.4,0-0.8-0.1-1.1-0.4l-16.3-12.7c-0.8-0.6-0.9-1.7-0.3-2.5s1.7-0.9,2.5-0.3c0,0,0,0,0,0
	l15.2,11.8l15.2-11.8c0.8-0.6,1.9-0.5,2.5,0.3c0.6,0.8,0.5,1.9-0.3,2.5c0,0,0,0,0,0L561,547C560.7,547.2,560.3,547.4,559.9,547.4z"
	/>
<path class="st3" d="M763.8,588.7l-209.1,0.1c-0.6,0-1-0.4-1-1s0.4-1,1-1l209.1-0.1c0.6,0,1,0.4,1,1S764.4,588.7,763.8,588.7z"/>
<circle class="st4" cx="761.1" cy="587.7" r="14"/>
<path class="st3" d="M758.8,320.7l-211.1,0.1c-0.6,0-1-0.4-1-1s0.4-1,1-1l211.1-0.1c0.6,0,1,0.4,1,1S759.4,320.7,758.8,320.7z"/>
<circle class="st4" cx="761.1" cy="320.7" r="14"/>
<path class="st3" d="M218.3,183.7l211.1,0.1c0.6,0,1-0.4,1-1s-0.4-1-1-1l-211.1-0.1c-0.6,0-1,0.4-1,1S217.7,183.7,218.3,183.7
	L218.3,183.7z"/>
<circle class="st4" cx="216.1" cy="183.7" r="14"/>
<path class="st3" d="M218.3,454.7l211.1,0.1c0.6,0,1-0.4,1-1s-0.4-1-1-1l-211.1-0.1c-0.6,0-1,0.4-1,1S217.7,454.7,218.3,454.7
	L218.3,454.7z"/>
<circle class="st4" cx="216.1" cy="454.7" r="14"/>
<path class="st3" d="M559.9,588.8c-24.9,0-45-20.1-45-45s20.1-45,45-45s45,20.1,45,45l0,0C604.9,568.6,584.8,588.7,559.9,588.8z
	 M559.9,500.8c-23.7,0-43,19.3-43,43s19.3,43,43,43s43-19.3,43-43C602.9,520,583.6,500.8,559.9,500.8z"/>
<path class="st3" d="M429.9,454.8c-24.9,0-45-20.1-45-45c0-24.9,20.1-45,45-45s45,20.1,45,45C474.9,434.6,454.8,454.7,429.9,454.8z
	 M429.9,366.8c-23.7,0-43,19.3-43,43s19.3,43,43,43s43-19.3,43-43l0,0C472.9,386,453.6,366.8,429.9,366.8L429.9,366.8z"/>
<path class="st3" d="M550.9,320.8c-24.9,0-45-20.1-45-45s20.1-45,45-45s45,20.1,45,45C595.9,300.6,575.8,320.7,550.9,320.8z
	 M550.9,232.8c-23.7,0-43,19.3-43,43s19.3,43,43,43s43-19.3,43-43C593.9,252,574.6,232.8,550.9,232.8z"/>
<path class="st3" d="M430.9,183.7c-24.9,0-45-20.1-45-45s20.1-45,45-45s45,20.1,45,45l0,0C475.9,163.5,455.8,183.7,430.9,183.7z
	 M430.9,95.7c-23.7,0-43,19.3-43,43s19.3,43,43,43s43-19.3,43-43C473.9,114.9,454.6,95.7,430.9,95.7L430.9,95.7z"/>
<path class="st5" d="M148.5,488.6c-2.5-1.9-4.1-4.8-4.3-7.9c0-0.4,0-0.7,0-1.1l-46.6-31.4c-3.1-2.1-4.5-6.1-3.3-9.7l22.3-55.3
	c2-5,7.6-7.4,12.6-5.4c4.9,2,7.4,7.6,5.4,12.5l-18,45.7l36.3,32.9c0.5-0.1,1-0.2,1.5-0.2c6.1-0.5,11.4,4,11.8,10.1
	c0.4,5.6-3.4,10.6-8.9,11.7c-0.7,0.1-1.4,0.2-2.1,0.2C152.7,490.8,150.4,490,148.5,488.6z"/>
<path class="st4" d="M97.6,415.8c-0.6-1.3-0.5-2.8,0.1-4l10.6-21.7c2.2-7,9.8-10.9,16.8-8.7c7,2.2,10.9,9.7,8.7,16.7l-3.9,23.9
	c-0.4,2.6-2.9,4.4-5.5,4c-0.2,0-0.5-0.1-0.7-0.2l-23.2-7.4C99.3,418.1,98.2,417.1,97.6,415.8z"/>
<polygon class="st5" points="170.9,684 183.2,684 189,636.7 170.9,636.7 "/>
<path class="st6" d="M167.8,679.9l24.1,0h0c8.5,0,15.4,6.9,15.4,15.4c0,0,0,0,0,0v0.5l-39.5,0L167.8,679.9z"/>
<polygon class="st5" points="51,675.3 62.9,678.3 80.3,634 62.8,629.5 "/>
<path class="st6" d="M49,670.6l23.4,6l0,0c8.2,2.1,13.2,10.5,11.1,18.7c0,0,0,0,0,0l-0.1,0.5L45,686L49,670.6z"/>
<circle class="st5" cx="137" cy="335" r="24.6"/>
<path class="st4" d="M124.6,437.1c-5.8-6-10.8-12.8-14.7-20.2c-4.2-8.2-4.8-17.8-1.5-26.5c3.3-8.8,10.2-15.9,19-19.3
	c15.8-6.4,33.8,0.3,41.6,15.4c6.1,12,8.6,23.8,7.2,35c-2.7,21.3-4.2,32.4-4.6,32.8l-0.1,0.1l-45.7,2L124.6,437.1z"/>
<path class="st6" d="M127.3,450.5l40.9-2c2.1-0.1,4,1.5,4.2,3.6L191.2,663c0.2,2.2-1.4,4.1-3.6,4.3c-0.1,0-0.3,0-0.4,0l-16-0.3
	c-1.8,0-3.4-1.3-3.8-3l-30.5-123c-0.5-2.1-2.7-3.5-4.8-2.9c-1.2,0.3-2.2,1.1-2.7,2.2L71.5,665.9c-0.8,1.8-2.8,2.7-4.6,2.2l-16.1-4.2
	c-2.1-0.5-3.3-2.6-2.9-4.7c5.3-25,37-168,76.9-207.5C125.4,451,126.3,450.6,127.3,450.5z"/>
<path class="st5" d="M204.7,474.2c-3-0.9-5.4-3.1-6.8-5.9c-0.1-0.3-0.3-0.7-0.4-1L143,453.9c-3.7-0.9-6.3-4.1-6.5-7.9l1.8-59.6
	c0.2-5.4,4.6-9.6,10-9.4c5.3,0.2,9.5,4.6,9.4,9.9l-1.1,49.1l45.4,18.4c0.4-0.3,0.8-0.5,1.3-0.7h0c5.5-2.6,12.1-0.2,14.6,5.4
	c2.6,5.5,0.2,12.1-5.4,14.6C210.2,474.8,207.3,475,204.7,474.2z"/>
<path class="st4" d="M132.6,416.1c-1-1-1.4-2.4-1.3-3.8l2.7-24c-0.3-7.4,5.5-13.6,12.9-13.8c7.4-0.3,13.5,5.5,13.8,12.8l4.4,23.9
	c0.5,2.6-1.2,5.1-3.9,5.6c-0.2,0-0.5,0.1-0.7,0.1l-24.3,0.9C134.9,417.7,133.5,417.1,132.6,416.1z"/>
<path class="st6" d="M101.8,367.4l2.6-8.3l1.8,9.3l14.4-0.4l-0.1-9.2l5.5,9.1L139,365c-2.8-3.7-5.6-7.5-7.4-11.9s-2.4-9.5-0.8-14
	c4.1-11,19.8-7.9,28.3-8c2.5,0,5.3-0.2,6.9-2.2c1.2-1.5,1.4-3.7,1.4-5.8c-0.3-10.5-6.6-20.4-15.5-24.6c-4.3-2-9.2-2.7-13.9-1.9
	c-2.5,0.4-4.9,1.1-7.1,2.2c-2,1-4.1,3.3-6.2,3.2c-1.8-0.1-4.2-1.9-6.2-2.3c-2.4-0.4-4.8-0.3-7.1,0.2c-4.7,1-8.9,3.6-12.1,7.2
	c-6.7,7.8-8.7,19.2-7.5,29.7s5.1,20.4,9,30.2"/>
<path class="st0" d="M803,697.7H1c-0.6,0-1-0.4-1-1s0.4-1,1-1h802c0.6,0,1,0.4,1,1S803.6,697.7,803,697.7z"/>
<path class="st7" d="M789.5,685.3c3.1-2.5,5.3-5.8,6.4-9.6c0.8-3.8-0.8-8.3-4.4-9.8c-4.1-1.6-8.5,1.3-11.8,4.1s-7.1,6.1-11.4,5.5
	c4.5-4.1,6.5-10.3,5.3-16.3c-0.2-1.2-0.7-2.4-1.5-3.3c-2.3-2.4-6.4-1.4-9.1,0.5c-8.6,6.1-11,17.8-11.1,28.4
	c-0.9-3.8-0.1-7.8-0.2-11.6s-1.1-8.3-4.4-10.3c-2-1.1-4.3-1.6-6.6-1.6c-3.9-0.1-8.2,0.2-10.9,3.1c-3.3,3.5-2.4,9.4,0.4,13.3
	s7.2,6.3,11.2,9c3.2,1.9,6,4.5,8,7.7c0.2,0.4,0.4,0.9,0.6,1.4h24.3C779.9,692.9,784.9,689.4,789.5,685.3z"/>
<path class="st2" d="M536.4,302.2c-1.5,0-2.7-1.2-2.7-2.7c0-0.4,0.1-0.7,0.2-1.1l3.1-7c-9.7-8.6-10.5-23.4-2-33
	c8.6-9.7,23.4-10.5,33-2c9.7,8.6,10.5,23.4,2,33c-6,6.8-15.5,9.5-24.2,6.9l-8,5.4C537.5,302,536.9,302.2,536.4,302.2z M552.6,253.9
	c-11.1,0-20.1,9-20.1,20c0,6.1,2.8,11.9,7.6,15.7l1,0.8l-3.4,7.5l7.7-5.2l0.8,0.3c10.5,3.5,21.9-2.1,25.4-12.6
	c3.5-10.5-2.1-21.9-12.6-25.4C556.9,254.3,554.7,253.9,552.6,253.9L552.6,253.9z"/>
<circle class="st2" cx="552.6" cy="272.9" r="3.3"/>
<circle class="st2" cx="543.3" cy="272.9" r="3.3"/>
<circle class="st2" cx="561.8" cy="272.9" r="3.3"/>
</svg>
